<?xml version="1.0" standalone="no"?>
<!DOCTYPE svg PUBLIC "-//W3C//DTD SVG 20010904//EN"
 "http://www.w3.org/TR/2001/REC-SVG-20010904/DTD/svg10.dtd">
<svg version="1.0" xmlns="http://www.w3.org/2000/svg"
 width="152.000000pt" height="152.000000pt" viewBox="0 0 152.000000 152.000000"
 preserveAspectRatio="xMidYMid meet">
<metadata>
Created by potrace 1.13, written by Peter Selinger 2001-2015
</metadata>
<g transform="translate(0.000000,152.000000) scale(0.100000,-0.100000)"
fill="#000000" stroke="none">
<path d="M0 760 l0 -760 760 0 760 0 0 760 0 760 -760 0 -760 0 0 -760z m1499
736 c8 -9 10 -213 9 -747 l-3 -734 -734 -3 c-534 -1 -738 1 -747 9 -12 9 -14
138 -14 744 0 402 3 735 7 738 3 4 336 7 738 7 606 0 735 -2 744 -14z"/>
<path d="M377 1409 c-90 -21 -151 -71 -189 -154 -23 -50 -23 -51 -23 -500 0
-449 0 -450 23 -500 28 -60 64 -100 117 -128 34 -19 56 -22 155 -22 104 0 120
3 165 26 53 27 112 99 122 151 8 39 17 35 31 -15 16 -52 99 -139 150 -155 67
-23 148 -25 229 -7 72 16 82 21 129 69 84 87 86 99 82 616 -4 491 -1 474 -83
555 -58 58 -127 79 -240 73 -140 -7 -234 -71 -267 -179 -13 -45 -23 -43 -33 7
-11 59 -95 136 -171 157 -65 18 -136 20 -197 6z m137 -200 c37 -17 56 -76 56
-169 l0 -80 194 0 194 0 4 94 c4 102 20 139 65 157 37 14 90 -6 108 -41 22
-43 22 -787 0 -829 -21 -42 -67 -53 -118 -30 -39 18 -50 55 -55 177 l-4 112
-193 0 -193 0 -4 -126 -3 -126 -33 -29 c-36 -33 -60 -36 -102 -14 -59 31 -60
37 -60 455 0 403 2 423 47 449 24 14 66 14 97 0z"/>
</g>
</svg>
